<svg width="1440" height="1000" viewBox="0 0 1440 1000" fill="none" xmlns="http://www.w3.org/2000/svg">
<g clip-path="url(#clip0_15_567)">
<path d="M83.9063 -122.068V-150.925H74.8843V-116.257L-50.7689 9.34239H-75.8742V18.3611H-56.582L83.9063 -122.068ZM102.829 -114.227V-150.925H93.8073V-108.416L-42.9311 28.2644H-75.8742V37.2831H-48.7442L102.829 -114.227ZM64.9843 -129.903V-150.925H55.9623V-124.092L-58.6068 -9.57321H-75.8742V-0.554611H-64.4199L64.9843 -129.903ZM159.604 -90.7158V-150.919H150.582V-84.9049L-19.4112 85.0241H-75.8806V94.0427H-25.2243L159.604 -90.7158ZM-17.3802 112.958L178.533 -82.8809V-150.919H169.511V-77.07L-11.5671 103.94H-75.8742V112.958H-17.3802ZM121.759 -106.392V-150.925H112.736V-100.581L-35.0869 47.1864H-75.8742V56.2051H-40.9L121.759 -106.392ZM140.681 -98.5568V-150.925H131.659V-92.7458L-27.2491 66.102H-75.8742V75.1207H-33.0622L140.681 -98.5568Z" fill="#D60080"/>
<path d="M83.9063 87.56V58.7029H74.8843V93.3709L-50.7689 218.97H-75.8742V227.989H-56.582L83.9063 87.56ZM102.829 95.4013V58.7029H93.8073V101.212L-42.9311 237.892H-75.8742V246.911H-48.7442L102.829 95.4013ZM64.9843 79.7252V58.7029H55.9623V85.5361L-58.6068 200.054H-75.8742V209.073H-64.4199L64.9843 79.7252ZM159.604 118.906V58.7029H150.582V124.717L-19.4112 294.645H-75.8806V303.664H-25.2243L159.604 118.906ZM-17.3802 322.586L178.533 126.747V58.7092H169.511V132.558L-11.5671 313.568H-75.8742V322.586H-17.3802ZM121.759 103.236V58.7029H112.736V109.047L-35.0869 256.814H-75.8742V265.833H-40.9L121.759 103.236ZM140.681 111.071V58.7029H131.659V116.882L-27.2491 275.73H-75.8742V284.748H-33.0622L140.681 111.071Z" fill="#D60080"/>
<path d="M226.286 29.8458V58.703H235.308V24.0349L360.962 -101.565H386.067V-110.583H366.775L226.286 29.8458ZM207.364 22.0109V58.7094H216.386V16.2L353.124 -120.48H386.067V-129.499H358.937L207.364 22.0109ZM245.209 37.6806V58.703H254.231V31.8697L368.8 -82.6488H386.067V-91.6678H374.613L245.209 37.6806ZM150.589 -1.49992V58.703H159.611V-7.31082L329.604 -177.24H386.074V-186.259H335.417L150.589 -1.49992ZM327.573 -205.174L131.659 -9.33482V58.703H140.681V-15.1457L321.76 -196.156H386.067V-205.174H327.573ZM188.434 14.1698V58.703H197.456V8.35887L345.28 -139.409H386.067V-148.427H351.093L188.434 14.1698ZM169.511 6.33487V58.703H178.534V0.523972L337.442 -158.324H386.067V-167.343H343.255L169.511 6.33487Z" fill="#D60080"/>
<path d="M83.9063 292.713V263.856H74.8843V298.524L-50.7689 424.123H-75.8742V433.142H-56.582L83.9063 292.713ZM102.829 300.548V263.849H93.8073V306.358L-42.9311 443.039H-75.8742V452.057H-48.7442L102.829 300.548ZM64.9843 284.878V263.856H55.9623V290.689L-58.6068 405.207H-75.8742V414.226H-64.4199L64.9843 284.878ZM159.604 324.059V263.856H150.582V329.869L-19.4112 499.798H-75.8806V508.817H-25.2243L159.604 324.059ZM-17.3802 527.739L178.533 331.9V263.862H169.511V337.711L-11.5671 518.72H-75.8742V527.739H-17.3802ZM121.759 308.389V263.856H112.736V314.2L-35.0869 461.967H-75.8742V470.986H-40.9L121.759 308.389ZM140.681 316.224V263.856H131.659V322.035L-27.2491 480.883H-75.8742V489.901H-33.0622L140.681 316.224Z" fill="#D60080"/>
<path d="M545.848 -188.191V-217.048H536.826V-182.38L411.172 -56.7807H386.067V-47.7621H405.359L545.848 -188.191ZM564.777 -180.356V-217.055H555.755V-174.546L419.017 -37.8651H386.074V-28.8464H413.203L564.777 -180.356ZM526.925 -196.033V-217.055H517.903V-190.222L403.335 -75.7027H386.067V-66.6841H397.521L526.925 -196.033ZM621.552 -156.846V-217.048H612.53V-151.035L442.536 18.8946H386.067V27.9133H436.723L621.552 -156.846ZM444.561 46.8289L640.475 -149.011V-217.048H631.453V-143.2L450.374 37.8103H386.067V46.8289H444.561ZM583.7 -172.522V-217.055H574.678V-166.711L426.854 -18.943H386.067V-9.92438H421.041L583.7 -172.522ZM602.623 -164.687V-217.055H593.601V-158.876L434.692 -0.0273895H386.067V8.99121H428.879L602.623 -164.687Z" fill="#D60080"/>
<path d="M226.286 234.998V263.856H235.308V229.188L360.962 103.589H386.067V94.57H366.775L226.286 234.998ZM207.364 227.157V263.856H216.386V221.346L353.124 84.6666H386.067V75.6479H358.937L207.364 227.157ZM245.209 242.833V263.856H254.231V237.022L368.8 122.504H386.067V113.486H374.613L245.209 242.833ZM150.589 203.653V263.856H159.611V197.842L329.604 27.9132H386.074V18.8947H335.417L150.589 203.653ZM327.573 -0.0273438L131.659 195.812V263.849H140.681V190.001L321.76 8.99126H386.067V-0.0273438H327.573ZM188.434 219.322V263.856H197.456V213.512L345.28 65.7446H386.067V56.7259H351.093L188.434 219.322ZM169.511 211.488V263.856H178.534V205.677L337.442 46.829H386.067V37.8103H343.255L169.511 211.488Z" fill="#D60080"/>
<path d="M83.9063 496.343V467.485H74.8843V502.154L-50.7689 627.753H-75.8742V636.772H-56.582L83.9063 496.343ZM102.829 504.178V467.479H93.8073V509.988L-42.9311 646.669H-75.8742V655.687H-48.7442L102.829 504.178ZM64.9843 488.501V467.479H55.9623V494.312L-58.6068 608.831H-75.8742V617.85H-64.4199L64.9843 488.501ZM159.604 527.688V467.485H150.582V533.499L-19.4112 703.428H-75.8806V712.447H-25.2243L159.604 527.688ZM-17.3802 731.363L178.533 535.523V467.485H169.511V541.334L-11.5671 722.344H-75.8742V731.363H-17.3802ZM121.759 512.012V467.479H112.736V517.823L-35.0869 665.591H-75.8742V674.609H-40.9L121.759 512.012ZM140.681 519.854V467.485H131.659V525.664L-27.2491 684.513H-75.8742V693.531H-33.0622L140.681 519.854Z" fill="#D60080"/>
<path d="M545.848 15.4323V-13.4248H536.826V21.2432L411.172 146.843H386.067V155.861H405.359L545.848 15.4323ZM564.777 23.2736V-13.4248H555.755V29.0845L419.017 165.765H386.074V174.783H413.203L564.777 23.2736ZM526.925 7.59749V-13.4248H517.903V13.4084L403.335 127.927H386.067V136.946H397.521L526.925 7.59749ZM621.552 46.7781V-13.4248H612.53V52.589L442.536 222.518H386.067V231.537H436.723L621.552 46.7781ZM444.561 250.459L640.475 54.6193V-13.4185H631.453V60.4302L450.374 241.44H386.067V250.459H444.561ZM583.7 31.1084V-13.4248H574.678V36.9193L426.854 184.687H386.067V193.705H421.041L583.7 31.1084ZM602.623 38.9433V-13.4248H593.601V44.7542L434.692 203.602H386.067V212.621H428.879L602.623 38.9433Z" fill="#D60080"/>
<path d="M226.286 438.628V467.486H235.308V432.817L360.962 307.218H386.067V298.199H366.775L226.286 438.628ZM207.364 430.787V467.486H216.386V424.976L353.124 288.296H386.067V279.277H358.937L207.364 430.787ZM245.209 446.463V467.486H254.231V440.652L368.8 326.134H386.067V317.115H374.613L245.209 446.463ZM150.589 407.276V467.479H159.611V401.465L329.604 231.536H386.074V222.518H335.417L150.589 407.276ZM327.573 203.602L131.659 399.441V467.479H140.681V393.631L321.76 212.621H386.067V203.602H327.573ZM188.434 422.952V467.486H197.456V417.141L345.28 269.374H386.067V260.355H351.093L188.434 422.952ZM169.511 415.117V467.486H178.534V409.307L337.442 250.458H386.067V241.44H343.255L169.511 415.117Z" fill="#D60080"/>
<path d="M83.9063 703.543V674.686H74.8843V709.354L-50.7689 834.954H-75.8742V843.972H-56.582L83.9063 703.543ZM102.829 711.385V674.686H93.8073V717.195L-42.9311 853.876H-75.8742V862.894H-48.7442L102.829 711.385ZM64.9843 695.708V674.686H55.9623V701.519L-58.6068 816.038H-75.8742V825.057H-64.4199L64.9843 695.708ZM159.604 734.895V674.692H150.582V740.706L-19.4112 910.635H-75.8806V919.654H-25.2243L159.604 734.895ZM-17.3802 938.57L178.533 742.73V674.692H169.511V748.541L-11.5671 929.551H-75.8742V938.57H-17.3802ZM121.759 719.22V674.686H112.736V725.03L-35.0869 872.798H-75.8742V881.816H-40.9L121.759 719.22ZM140.681 727.054V674.686H131.659V732.865L-27.2491 891.713H-75.8742V900.732H-33.0622L140.681 727.054Z" fill="#D60080"/>
<path d="M545.848 222.639V193.782H536.826V228.45L411.172 354.049H386.067V363.068H405.359L545.848 222.639ZM564.777 230.474V193.776H555.755V236.285L419.017 372.965H386.074V381.984H413.203L564.777 230.474ZM526.925 214.804V193.782H517.903V220.615L403.335 335.134H386.067V344.152H397.521L526.925 214.804ZM621.552 253.985V193.782H612.53V259.796L442.536 429.725H386.067V438.743H436.723L621.552 253.985ZM444.561 457.665L640.475 261.826V193.788H631.453V267.637L450.374 448.647H386.067V457.665H444.561ZM583.7 238.315V193.782H574.678V244.126L426.854 391.893H386.067V400.912H421.041L583.7 238.315ZM602.623 246.15V193.782H593.601V251.961L434.692 410.809H386.067V419.828H428.879L602.623 246.15Z" fill="#D60080"/>
<path d="M226.286 645.829V674.686H235.308V640.018L360.962 514.419H386.067V505.4H366.775L226.286 645.829ZM207.364 637.994V674.693H216.386V632.183L353.124 495.503H386.067V486.485H358.937L207.364 637.994ZM245.209 653.67V674.693H254.231V647.859L368.8 533.341H386.067V524.322H374.613L245.209 653.67ZM150.589 614.483V674.686H159.611V608.672L329.604 438.744H386.074V429.725H335.417L150.589 614.483ZM327.573 410.809L131.659 606.649V674.686H140.681V600.838L321.76 419.828H386.067V410.809H327.573ZM188.434 630.159V674.693H197.456V624.349L345.28 476.581H386.067V467.562H351.093L188.434 630.159ZM169.511 622.318V674.686H178.534V616.507L337.442 457.659H386.067V448.64H343.255L169.511 622.318Z" fill="#D60080"/>
<path d="M688.234 164.925V193.782H697.256V159.114L822.91 33.5148H848.015V24.4962H828.723L688.234 164.925ZM669.305 157.084V193.782H678.327V151.273L815.066 14.5928H848.009V5.57414H820.879L669.305 157.084ZM707.157 172.76V193.782H716.179V166.949L830.748 52.4305H848.015V43.4119H836.561L707.157 172.76ZM612.53 133.579V193.782H621.552V127.769L791.546 -42.1605H848.015V-51.1791H797.359L612.53 133.579ZM789.521 -70.1016L593.607 125.738V193.776H602.629V119.927L783.708 -61.0826H848.015V-70.1016H789.521ZM650.382 149.249V193.782H659.404V143.438L807.228 -4.32916H848.015V-13.3478H813.041L650.382 149.249ZM631.453 141.414V193.782H640.475V135.603L799.384 -23.2448H848.009V-32.2635H805.197L631.453 141.414Z" fill="#D60080"/>
<path d="M83.9063 909.75V880.893H74.8843V915.561L-50.7689 1041.16H-75.8742V1050.18H-56.582L83.9063 909.75ZM102.829 917.592V880.893H93.8073V923.403L-42.9311 1060.08H-75.8742V1069.1H-48.7442L102.829 917.592ZM64.9843 901.916V880.893H55.9623V907.726L-58.6068 1022.25H-75.8742V1031.26H-64.4199L64.9843 901.916ZM159.604 941.096V880.893H150.582V946.907L-19.4112 1116.83H-75.8806V1125.85H-25.2243L159.604 941.096ZM-17.3802 1144.77L178.533 948.937V880.9H169.511V954.748L-11.5671 1135.75H-75.8742V1144.77H-17.3802ZM121.759 925.426V880.893H112.736V931.237L-35.0869 1079H-75.8742V1088.02H-40.9L121.759 925.426ZM140.681 933.261V880.893H131.659V939.072L-27.2491 1097.92H-75.8742V1106.94H-33.0622L140.681 933.261Z" fill="#D60080"/>
<path d="M545.848 428.846V399.989H536.826V434.657L411.172 560.256H386.067V569.275H405.359L545.848 428.846ZM564.777 436.681V399.983H555.755V442.492L419.017 579.172H386.074V588.191H413.203L564.777 436.681ZM526.925 421.005V399.983H517.903V426.816L403.335 541.334H386.067V550.353H397.521L526.925 421.005ZM621.552 460.192V399.989H612.53V466.003L442.536 635.932H386.067V644.95H436.723L621.552 460.192ZM444.561 663.866L640.475 468.027V399.989H631.453V473.838L450.374 654.847H386.067V663.866H444.561ZM583.7 444.516V399.983H574.678V450.327L426.854 598.094H386.067V607.113H421.041L583.7 444.516ZM602.623 452.357V399.989H593.601V458.168L434.692 617.016H386.067V626.035H428.879L602.623 452.357Z" fill="#D60080"/>
<path d="M226.286 852.036V880.893H235.308V846.225L360.962 720.625H386.067V711.607H366.775L226.286 852.036ZM207.364 844.201V880.899H216.386V838.39L353.124 701.71H386.067V692.691H358.937L207.364 844.201ZM245.209 859.871V880.893H254.231V854.06L368.8 739.541H386.067V730.522H374.613L245.209 859.871ZM150.589 820.69V880.893H159.611V814.879L329.604 644.95H386.074V635.931H335.417L150.589 820.69ZM327.573 617.009L131.659 812.849V880.887H140.681V807.038L321.76 626.028H386.067V617.009H327.573ZM188.434 836.36V880.893H197.456V830.549L345.28 682.781H386.067V673.763H351.093L188.434 836.36ZM169.511 828.525V880.893H178.534V822.714L337.442 663.866H386.067V654.847H343.255L169.511 828.525Z" fill="#D60080"/>
<path d="M1007.79 -52.0639V-80.9219H998.774V-46.2539L873.12 79.346H848.015V88.3646H867.307L1007.79 -52.0639ZM1026.71 -44.2231V-80.9219H1017.69V-38.4122L880.958 98.268H848.015V107.287H875.145L1026.71 -44.2231ZM988.874 -59.8989V-80.9219H979.854V-54.0879L865.282 60.4303H848.015V69.449H859.469L988.874 -59.8989ZM1083.49 -20.7122V-80.9149H1074.47V-14.9013L904.478 155.028H848.009V164.046H898.665L1083.49 -20.7122ZM906.509 182.962L1102.42 -12.8774V-80.9149H1093.4V-7.06648L912.322 173.943H848.015V182.962H906.509ZM1045.64 -36.3883V-80.9219H1036.62V-30.5774L888.802 117.19H848.015V126.209H882.989L1045.64 -36.3883ZM1064.57 -28.5534V-80.9219H1055.54V-22.7425L896.64 136.106H848.015V145.124H890.827L1064.57 -28.5534Z" fill="#D60080"/>
<path d="M688.234 371.132V399.989H697.256V365.321L822.91 239.721H848.015V230.703H828.723L688.234 371.132ZM669.305 363.291V399.989H678.327V357.48L815.066 220.8H848.009V211.781H820.879L669.305 363.291ZM707.157 378.967V399.989H716.179V373.156L830.748 258.637H848.015V249.618H836.561L707.157 378.967ZM612.53 339.78V399.983H621.552V333.969L791.546 164.04H848.015V155.021H797.359L612.53 339.78ZM789.521 136.106L593.607 331.945V399.983H602.629V326.134L783.708 145.124H848.015V136.106H789.521ZM650.382 355.456V399.989H659.404V349.645L807.228 201.878H848.015V192.859H813.041L650.382 355.456ZM631.453 347.621V399.989H640.475V341.81L799.384 182.962H848.009V173.943H805.197L631.453 347.621Z" fill="#D60080"/>
<path d="M545.848 634.053V605.196H536.826V639.864L411.172 765.463H386.067V774.482H405.359L545.848 634.053ZM564.777 641.888V605.189H555.755V647.699L419.017 784.379H386.074V793.398H413.203L564.777 641.888ZM526.925 626.212V605.189H517.903V632.023L403.335 746.541H386.067V755.56H397.521L526.925 626.212ZM621.552 665.399V605.196H612.53V671.21L442.536 841.139H386.067V850.157H436.723L621.552 665.399ZM444.561 869.073L640.475 673.233V605.196H631.453V679.044L450.374 860.054H386.067V869.073H444.561ZM583.7 649.723V605.189H574.678V655.533L426.854 803.301H386.067V812.32H421.041L583.7 649.723ZM602.623 657.557V605.189H593.601V663.368L434.692 822.217H386.067V831.235H428.879L602.623 657.557Z" fill="#D60080"/>
<path d="M226.286 1057.24V1086.1H235.308V1051.43L360.962 925.833H386.067V916.814H366.775L226.286 1057.24ZM207.364 1049.4V1086.1H216.386V1043.59L353.124 906.911H386.067V897.892H358.937L207.364 1049.4ZM245.209 1065.07V1086.1H254.231V1059.27L368.8 944.748H386.067V935.73H374.613L245.209 1065.07ZM150.589 1025.9V1086.1H159.611V1020.09L329.604 850.157H386.074V841.139H335.417L150.589 1025.9ZM327.573 822.217L131.659 1018.06V1086.09H140.681V1012.25L321.76 831.235H386.067V822.217H327.573ZM188.434 1041.57V1086.1H197.456V1035.76L345.28 887.989H386.067V878.97H351.093L188.434 1041.57ZM169.511 1033.73V1086.1H178.534V1027.92L337.442 869.073H386.067V860.054H343.255L169.511 1033.73Z" fill="#D60080"/>
<path d="M1007.79 153.143V124.286H998.774V158.954L873.12 284.553H848.015V293.571H867.307L1007.79 153.143ZM1026.71 160.984V124.286H1017.69V166.795L880.958 303.475H848.015V312.493H875.145L1026.71 160.984ZM988.874 145.308V124.286H979.854V151.119L865.282 265.637H848.015V274.656H859.469L988.874 145.308ZM1083.49 184.488V124.286H1074.47V190.299L904.478 360.228H848.009V369.247H898.665L1083.49 184.488ZM906.509 388.169L1102.42 192.329V124.292H1093.4V198.14L912.322 379.15H848.015V388.169H906.509ZM1045.64 168.819V124.286H1036.62V174.629L888.802 322.397H848.015V331.415H882.989L1045.64 168.819ZM1064.57 176.653V124.286H1055.54V182.464L896.64 341.312H848.015V350.331H890.827L1064.57 176.653Z" fill="#D60080"/>
<path d="M688.234 576.332V605.19H697.256V570.522L822.91 444.922H848.015V435.903H828.723L688.234 576.332ZM669.305 568.498V605.196H678.327V562.688L815.066 426.007H848.009V416.988H820.879L669.305 568.498ZM707.157 584.174V605.196H716.179V578.363L830.748 463.844H848.015V454.826H836.561L707.157 584.174ZM612.53 544.987V605.19H621.552V539.176L791.546 369.247H848.015V360.228H797.359L612.53 544.987ZM789.521 341.313L593.607 537.152V605.19H602.629V531.341L783.708 350.331H848.015V341.313H789.521ZM650.382 560.663V605.196H659.404V554.852L807.228 407.084H848.015V398.066H813.041L650.382 560.663ZM631.453 552.821V605.19H640.475V547.011L799.384 388.162H848.009V379.145H805.197L631.453 552.821Z" fill="#D60080"/>
<path d="M1150.17 95.4286V124.286H1159.19V89.6176L1284.85 -35.9818H1309.95V-45.0006H1290.66L1150.17 95.4286ZM1131.25 87.5936V124.292H1140.27V81.7827L1277.01 -54.8977H1309.95V-63.9156H1282.82L1131.25 87.5936ZM1169.09 103.263V124.286H1178.12V97.4525L1292.69 -17.0662H1309.95V-26.0847H1298.5L1169.09 103.263ZM1074.47 64.0828V124.286H1083.5V58.2719L1253.49 -111.657H1309.96V-120.676H1259.3L1074.47 64.0828ZM1251.46 -139.598L1055.55 56.2415V124.279H1064.57V50.4306L1245.65 -130.579H1309.95V-139.598H1251.46ZM1112.32 79.7524V124.286H1121.34V73.9415L1269.17 -73.8257H1309.95V-82.8447H1274.98L1112.32 79.7524ZM1093.4 71.9176V124.286H1102.42V66.1067L1261.33 -92.7417H1309.95V-101.76H1267.14L1093.4 71.9176Z" fill="#D60080"/>
<path d="M545.848 840.255V811.396H536.826V846.065L411.172 971.664H386.067V980.683H405.359L545.848 840.255ZM564.777 848.095V811.396H555.755V853.906L419.017 990.586H386.074V999.605H413.203L564.777 848.095ZM526.925 832.419V811.396H517.903V838.23L403.335 952.748H386.067V961.767H397.521L526.925 832.419ZM621.552 871.599V811.396H612.53V877.41L442.536 1047.34H386.067V1056.36H436.723L621.552 871.599ZM444.561 1075.28L640.475 879.441V811.404H631.453V885.253L450.374 1066.26H386.067V1075.28H444.561ZM583.7 855.93V811.396H574.678V861.742L426.854 1009.51H386.067V1018.53H421.041L583.7 855.93ZM602.623 863.766V811.396H593.601V869.576L434.692 1028.42H386.067V1037.44H428.879L602.623 863.766Z" fill="#D60080"/>
<path d="M1007.79 359.349V330.492H998.774V365.16L873.12 490.76H848.015V499.778H867.307L1007.79 359.349ZM1026.71 367.184V330.486H1017.69V372.995L880.958 509.675H848.015V518.694H875.145L1026.71 367.184ZM988.874 351.508V330.486H979.854V357.319L865.282 471.838H848.015V480.856H859.469L988.874 351.508ZM1083.49 390.695V330.492H1074.47V396.506L904.478 566.435H848.009V575.454H898.665L1083.49 390.695ZM906.509 594.369L1102.42 398.53V330.492H1093.4V404.341L912.322 585.351H848.015V594.369H906.509ZM1045.64 375.019V330.486H1036.62V380.83L888.802 528.597H848.015V537.616H882.989L1045.64 375.019ZM1064.57 382.86V330.492H1055.54V388.671L896.64 547.519H848.015V556.538H890.827L1064.57 382.86Z" fill="#D60080"/>
<path d="M688.234 782.539V811.396H697.256V776.728L822.91 651.129H848.015V642.11H828.723L688.234 782.539ZM669.305 774.704V811.403H678.327V768.893L815.066 632.213H848.009V623.195H820.879L669.305 774.704ZM707.157 790.374V811.396H716.179V784.563L830.748 670.045H848.015V661.026H836.561L707.157 790.374ZM612.53 751.193V811.396H621.552V745.383L791.546 575.454H848.015V566.435H797.359L612.53 751.193ZM789.521 547.519L593.607 743.359V811.396H602.629V737.548L783.708 556.538H848.015V547.519H789.521ZM650.382 766.87V811.403H659.404V761.059L807.228 613.291H848.015V604.273H813.041L650.382 766.87ZM631.453 759.028V811.396H640.475V753.217L799.384 594.369H848.009V585.351H805.197L631.453 759.028Z" fill="#D60080"/>
<path d="M1469.73 -121.56V-150.417H1460.71V-115.749L1335.06 9.84961H1309.95V18.8683H1329.24L1469.73 -121.56ZM1488.66 -113.719V-150.417H1479.64V-107.908L1342.9 28.7716H1309.96V37.7903H1337.09L1488.66 -113.719ZM1450.81 -129.395V-150.417H1441.79V-123.584L1327.22 -9.06598H1309.95V-0.0473938H1321.41L1450.81 -129.395ZM1545.44 -90.2085V-150.411H1536.42V-84.3975L1366.42 85.5314H1309.95V94.55H1360.61L1545.44 -90.2085ZM1368.45 113.466L1564.36 -82.3735V-150.411H1555.34V-76.5625L1374.26 104.447H1309.95V113.466H1368.45ZM1507.59 -105.884V-150.417H1498.56V-100.073L1350.74 47.6936H1309.95V56.7123H1344.93L1507.59 -105.884ZM1526.51 -98.0495V-150.417H1517.49V-92.2385L1358.58 66.6093H1309.95V75.628H1352.76L1526.51 -98.0495Z" fill="#D60080"/>
<path d="M1150.17 301.635V330.492H1159.19V295.824L1284.85 170.225H1309.95V161.207H1290.66L1150.17 301.635ZM1131.25 293.794V330.492H1140.27V287.983L1277.01 151.303H1309.95V142.285H1282.82L1131.25 293.794ZM1169.09 309.47V330.492H1178.12V303.659L1292.69 189.141H1309.95V180.122H1298.5L1169.09 309.47ZM1074.47 270.289V330.492H1083.5V264.479L1253.49 94.5501H1309.96V85.5315H1259.3L1074.47 270.289ZM1251.46 66.6094L1055.55 262.448V330.486H1064.57V256.637L1245.65 75.6281H1309.95V66.6094H1251.46ZM1112.32 285.959V330.492H1121.34V280.148L1269.17 132.381H1309.95V123.363H1274.98L1112.32 285.959ZM1093.4 278.124V330.492H1102.42V272.313L1261.33 113.466H1309.95V104.447H1267.14L1093.4 278.124Z" fill="#D60080"/>
<path d="M1007.79 565.556V536.699H998.774V571.367L873.12 696.966H848.015V705.985H867.307L1007.79 565.556ZM1026.71 573.391V536.693H1017.69V579.202L880.958 715.882H848.015V724.901H875.145L1026.71 573.391ZM988.874 557.715V536.693H979.854V563.526L865.282 678.044H848.015V687.063H859.469L988.874 557.715ZM1083.49 596.902V536.699H1074.47V602.713L904.478 772.642H848.009V781.66H898.665L1083.49 596.902ZM906.509 800.576L1102.42 604.737V536.699H1093.4V610.548L912.322 791.557H848.015V800.576H906.509ZM1045.64 581.226V536.693H1036.62V587.037L888.802 734.804H848.015V743.823H882.989L1045.64 581.226ZM1064.57 589.061V536.693H1055.54V594.872L896.64 753.72H848.015V762.738H890.827L1064.57 589.061Z" fill="#D60080"/>
<path d="M688.234 988.746V1017.6H697.256V982.935L822.91 857.336H848.015V848.318H828.723L688.234 988.746ZM669.305 980.905V1017.6H678.327V975.094L815.066 838.414H848.009V829.396H820.879L669.305 980.905ZM707.157 996.581V1017.6H716.179V990.771L830.748 876.253H848.015V867.233H836.561L707.157 996.581ZM612.53 957.401V1017.6H621.552V951.591L791.546 781.661H848.015V772.642H797.359L612.53 957.401ZM789.521 753.72L593.607 949.56V1017.6H602.629V943.748L783.708 762.74H848.015V753.72H789.521ZM650.382 973.07V1017.6H659.404V967.259L807.228 819.492H848.015V810.474H813.041L650.382 973.07ZM631.453 965.235V1017.6H640.475V959.425L799.384 800.576H848.009V791.558H805.197L631.453 965.235Z" fill="#D60080"/>
<path d="M1469.73 84.6462V55.7891H1460.71V90.4571L1335.06 216.056H1309.95V225.075H1329.24L1469.73 84.6462ZM1488.66 92.4875V55.7891H1479.64V98.2984L1342.9 234.978H1309.96V243.997H1337.09L1488.66 92.4875ZM1450.81 76.8114V55.7891H1441.79V82.6223L1327.22 197.14H1309.95V206.159H1321.41L1450.81 76.8114ZM1545.44 115.992V55.7891H1536.42V121.803L1366.42 291.731H1309.95V300.75H1360.61L1545.44 115.992ZM1368.45 319.672L1564.36 123.833V55.7954H1555.34V129.644L1374.26 310.653H1309.95V319.672H1368.45ZM1507.59 100.322V55.7891H1498.56V106.133L1350.74 253.9H1309.95V262.919H1344.93L1507.59 100.322ZM1526.51 108.157V55.7891H1517.49V113.968L1358.58 272.816H1309.95V281.834H1352.76L1526.51 108.157Z" fill="#D60080"/>
<path d="M1150.17 507.836V536.693H1159.19V502.025L1284.85 376.425H1309.95V367.407H1290.66L1150.17 507.836ZM1131.25 500.001V536.699H1140.27V494.19L1277.01 357.51H1309.95V348.491H1282.82L1131.25 500.001ZM1169.09 515.677V536.699H1178.12V509.866L1292.69 395.347H1309.95V386.329H1298.5L1169.09 515.677ZM1074.47 476.49V536.693H1083.5V470.679L1253.49 300.75H1309.96V291.731H1259.3L1074.47 476.49ZM1251.46 272.816L1055.55 468.655V536.693H1064.57V462.844L1245.65 281.834H1309.95V272.816H1251.46ZM1112.32 492.166V536.699H1121.34V486.355L1269.17 338.588H1309.95V329.569H1274.98L1112.32 492.166ZM1093.4 484.331V536.699H1102.42V478.52L1261.33 319.672H1309.95V310.653H1267.14L1093.4 484.331Z" fill="#D60080"/>
<path d="M1007.79 771.757V742.9H998.775V777.568L873.121 903.167H848.016V912.186H867.308L1007.79 771.757ZM1026.71 779.598V742.9H1017.69V785.409L880.959 922.089H848.016V931.108H875.146L1026.71 779.598ZM988.875 763.922V742.9H979.855V769.733L865.283 884.252H848.016V893.27H859.47L988.875 763.922ZM1083.49 803.109V742.906H1074.47V808.92L904.479 978.849H848.01V987.868H898.666L1083.49 803.109ZM906.51 1006.78L1102.42 810.944V742.906H1093.4V816.755L912.323 997.765H848.016V1006.78H906.51ZM1045.64 787.433V742.9H1036.62V793.244L888.803 941.011H848.016V950.03H882.99L1045.64 787.433ZM1064.57 795.268V742.9H1055.54V801.079L896.641 959.927H848.016V968.946H890.828L1064.57 795.268Z" fill="#D60080"/>
<path d="M688.235 1194.95V1223.81H697.257V1189.14L822.911 1063.54H848.016V1054.52H828.724L688.235 1194.95ZM669.306 1187.11V1223.81H678.328V1181.3L815.067 1044.62H848.01V1035.6H820.88L669.306 1187.11ZM707.158 1202.79V1223.81H716.18V1196.97L830.749 1082.46H848.016V1073.44H836.562L707.158 1202.79ZM612.531 1163.6V1223.8H621.553V1157.79L791.547 987.861H848.016V978.843H797.36L612.531 1163.6ZM789.522 959.927L593.608 1155.76V1223.8H602.63V1149.95L783.709 968.945H848.016V959.927H789.522ZM650.383 1179.27V1223.81H659.405V1173.46L807.229 1025.7H848.016V1016.68H813.042L650.383 1179.27ZM631.454 1171.44V1223.81H640.476V1165.63L799.385 1006.78H848.01V997.765H805.198L631.454 1171.44Z" fill="#D60080"/>
<path d="M1469.73 290.853V261.996H1460.71V296.664L1335.06 422.263H1309.95V431.282H1329.24L1469.73 290.853ZM1488.66 298.688V261.989H1479.64V304.498L1342.9 441.179H1309.96V450.197H1337.09L1488.66 298.688ZM1450.81 283.018V261.996H1441.79V288.829L1327.22 403.347H1309.95V412.366H1321.41L1450.81 283.018ZM1545.44 322.199V261.996H1536.42V328.009L1366.42 497.938H1309.95V506.957H1360.61L1545.44 322.199ZM1368.45 525.879L1564.36 330.04V262.002H1555.34V335.851L1374.26 516.86H1309.95V525.879H1368.45ZM1507.59 306.529V261.996H1498.56V312.34L1350.74 460.107H1309.95V469.126H1344.93L1507.59 306.529ZM1526.51 314.364V261.996H1517.49V320.175L1358.58 479.023H1309.95V488.041H1352.76L1526.51 314.364Z" fill="#D60080"/>
<path d="M1150.17 714.043V742.9H1159.19V708.232L1284.85 582.632H1309.95V573.614H1290.66L1150.17 714.043ZM1131.25 706.208V742.906H1140.27V700.397L1277.01 563.717H1309.95V554.698H1282.82L1131.25 706.208ZM1169.09 721.884V742.906H1178.12V716.073L1292.69 601.554H1309.95V592.536H1298.5L1169.09 721.884ZM1074.47 682.697V742.9H1083.5V676.886L1253.49 506.957H1309.96V497.938H1259.3L1074.47 682.697ZM1251.46 479.023L1055.55 674.862V742.9H1064.57V669.051L1245.65 488.041H1309.95V479.023H1251.46ZM1112.32 698.373V742.906H1121.34V692.562L1269.17 544.795H1309.95V535.776H1274.98L1112.32 698.373ZM1093.4 690.532V742.9H1102.42V684.721L1261.33 525.873H1309.95V516.854H1267.14L1093.4 690.532Z" fill="#D60080"/>
<path d="M1007.79 978.964V950.107H998.775V984.775L873.121 1110.37H848.016V1119.39H867.308L1007.79 978.964ZM1026.71 986.805V950.107H1017.69V992.616L880.959 1129.29H848.016V1138.31H875.146L1026.71 986.805ZM988.875 971.129V950.107H979.855V976.94L865.283 1091.46H848.016V1100.47H859.47L988.875 971.129ZM1083.49 1010.31V950.107H1074.47V1016.12L904.479 1186.05H848.01V1195.07H898.666L1083.49 1010.31ZM906.51 1213.99L1102.42 1018.15V950.113H1093.4V1023.96L912.323 1204.97H848.016V1213.99H906.51ZM1045.64 994.64V950.107H1036.62V1000.45L888.803 1148.22H848.016V1157.23H882.99L1045.64 994.64ZM1064.57 1002.48V950.107H1055.54V1008.29L896.641 1167.13H848.016V1176.15H890.828L1064.57 1002.48Z" fill="#D60080"/>
<path d="M1469.73 498.06V469.202H1460.71V503.87L1335.06 629.47H1309.95V638.489H1329.24L1469.73 498.06ZM1488.66 505.894V469.196H1479.64V511.705L1342.9 648.386H1309.96V657.404H1337.09L1488.66 505.894ZM1450.81 490.218V469.196H1441.79V496.029L1327.22 610.548H1309.95V619.567H1321.41L1450.81 490.218ZM1545.44 529.405V469.202H1536.42V535.216L1366.42 705.145H1309.95V714.164H1360.61L1545.44 529.405ZM1368.45 733.08L1564.36 537.24V469.202H1555.34V543.051L1374.26 724.061H1309.95V733.08H1368.45ZM1507.59 513.729V469.196H1498.56V519.54L1350.74 667.308H1309.95V676.326H1344.93L1507.59 513.729ZM1526.51 521.571V469.202H1517.49V527.381L1358.58 686.23H1309.95V695.248H1352.76L1526.51 521.571Z" fill="#D60080"/>
<path d="M1150.17 921.25V950.107H1159.19V915.439L1284.85 789.839H1309.95V780.821H1290.66L1150.17 921.25ZM1131.25 913.408V950.107H1140.27V907.597L1277.01 770.917H1309.95V761.899H1282.82L1131.25 913.408ZM1169.09 929.084V950.107H1178.12V923.274L1292.69 808.755H1309.95V799.736H1298.5L1169.09 929.084ZM1074.47 889.904V950.107H1083.5V884.093L1253.49 714.164H1309.96V705.145H1259.3L1074.47 889.904ZM1251.46 686.223L1055.55 882.063V950.1H1064.57V876.252L1245.65 695.242H1309.95V686.223H1251.46ZM1112.32 905.574V950.107H1121.34V899.763L1269.17 751.995H1309.95V742.977H1274.98L1112.32 905.574ZM1093.4 897.739V950.107H1102.42V891.928L1261.33 733.08H1309.95V724.061H1267.14L1093.4 897.739Z" fill="#D60080"/>
<path d="M1469.73 705.26V676.403H1460.71V711.071L1335.06 836.671H1309.95V845.689H1329.24L1469.73 705.26ZM1488.66 713.102V676.403H1479.64V718.913L1342.9 855.593H1309.96V864.611H1337.09L1488.66 713.102ZM1450.81 697.426V676.403H1441.79V703.236L1327.22 817.755H1309.95V826.774H1321.41L1450.81 697.426ZM1545.44 736.613V676.41H1536.42V742.423L1366.42 912.352H1309.95V921.371H1360.61L1545.44 736.613ZM1368.45 940.287L1564.36 744.447V676.41H1555.34V750.258L1374.26 931.268H1309.95V940.287H1368.45ZM1507.59 720.936V676.403H1498.56V726.747L1350.74 874.515H1309.95V883.533H1344.93L1507.59 720.936ZM1526.51 728.771V676.403H1517.49V734.582L1358.58 893.43H1309.95V902.449H1352.76L1526.51 728.771Z" fill="#D60080"/>
<path d="M1150.17 1128.45V1157.31H1159.19V1122.64L1284.85 997.046H1309.95V988.027H1290.66L1150.17 1128.45ZM1131.25 1120.61V1157.31H1140.27V1114.8L1277.01 978.124H1309.95V969.105H1282.82L1131.25 1120.61ZM1169.09 1136.29V1157.31H1178.12V1130.48L1292.69 1015.96H1309.95V1006.94H1298.5L1169.09 1136.29ZM1074.47 1097.1V1157.3H1083.5V1091.29L1253.49 921.364H1309.96V912.346H1259.3L1074.47 1097.1ZM1251.46 893.43L1055.55 1089.27V1157.3H1064.57V1083.46L1245.65 902.449H1309.95V893.43H1251.46ZM1112.32 1112.78V1157.31H1121.34V1106.97L1269.17 959.202H1309.95V950.183H1274.98L1112.32 1112.78ZM1093.4 1104.94V1157.31H1102.42V1099.14L1261.33 940.287H1309.95V931.268H1267.14L1093.4 1104.94Z" fill="#D60080"/>
<path d="M1469.73 910.467V881.61H1460.71V916.278L1335.06 1041.88H1309.95V1050.9H1329.24L1469.73 910.467ZM1488.66 918.309V881.61H1479.64V924.119L1342.9 1060.8H1309.96V1069.82H1337.09L1488.66 918.309ZM1450.81 902.632V881.61H1441.79V908.443L1327.22 1022.96H1309.95V1031.98H1321.41L1450.81 902.632ZM1545.44 941.813V881.61H1536.42V947.624L1366.42 1117.55H1309.95V1126.57H1360.61L1545.44 941.813ZM1368.45 1145.49L1564.36 949.654V881.616H1555.34V955.465L1374.26 1136.47H1309.95V1145.49H1368.45ZM1507.59 926.143V881.61H1498.56V931.954L1350.74 1079.72H1309.95V1088.74H1344.93L1507.59 926.143ZM1526.51 933.978V881.61H1517.49V939.789L1358.58 1098.64H1309.95V1107.66H1352.76L1526.51 933.978Z" fill="#D60080"/>
</g>
<defs>
<clipPath id="clip0_15_567">
<rect width="1440" height="1000" fill="white"/>
</clipPath>
</defs>
</svg>
