<svg width="316" height="134" viewBox="0 0 316 134" fill="none" xmlns="http://www.w3.org/2000/svg">
<g clip-path="url(#clip0_1_120)">
<path d="M295.276 73.7076V62.8757H291.825V73.6675L252.648 112.723H245.254V113.342H255.521L295.279 73.7105L295.276 73.7076ZM284.914 69.427V62.8728H281.462V69.384L248.354 102.387H245.251V103.007H251.227L284.914 69.427ZM290.093 71.5687V62.8757H286.642V71.5286L250.5 107.557H245.251V108.176H253.373L290.093 71.5687ZM305.638 77.9853V62.8728H302.187V77.9423L256.939 123.048H245.251V123.667H259.812L305.638 77.9825V77.9853ZM264.103 134L316 82.2631V62.8728H312.549V82.2229L261.233 133.381H245.251V134H264.103ZM300.455 75.8465V62.8728H297.004V75.8035L254.794 117.884H245.251V118.503H257.664L300.455 75.8465ZM310.818 80.1271V62.8757H307.366V80.0869L259.085 128.22H245.248V128.839H261.955L310.815 80.1299L310.818 80.1271Z" fill="#4A04FF"/>
<path d="M260.796 60.2924V71.1243H264.247V60.3325L303.423 21.2768H310.818V20.6575H300.55L260.793 60.2895L260.796 60.2924ZM271.158 64.573V71.1272H274.609V64.616L307.717 31.6127H310.82V30.9934H304.844L271.158 64.573ZM265.975 62.4341V71.1272H269.427V62.4743L305.569 26.4462H310.818V25.8269H302.696L265.975 62.4341ZM250.434 56.0147V71.1272H253.885V56.0577L299.132 10.9524H310.82V10.3331H296.259L250.434 56.0175V56.0147ZM291.966 0L240.069 51.737V71.1272H243.52V51.7771L294.839 0.619295H310.82V0H291.968H291.966ZM255.613 58.1535V71.1272H259.064V58.1965L301.275 16.116H310.818V15.4967H298.405L255.613 58.1535ZM245.251 53.8758V71.1272H248.702V53.916L296.984 5.78296H310.82V5.16366H294.114L245.254 53.8729L245.251 53.8758Z" fill="#4A04FF"/>
<path d="M163.551 20.6604L123.793 60.2924V71.1243H127.244V60.3325L166.421 21.2768H174.985L214.162 60.3325V71.1243H217.613V60.2924L177.856 20.6604H163.548H163.551ZM167.842 30.9934L134.155 64.573V71.1272H137.606V64.616L170.703 31.6213L203.8 64.616V71.1272H207.251V64.573L173.565 30.9934H167.842ZM161.402 15.4967L118.611 58.1535V71.1272H122.062V58.1965L164.272 16.116H177.131L219.342 58.1965V71.1272H222.793V58.1535L180.001 15.4967H161.399H161.402ZM165.696 25.8269L128.976 62.4341V71.1272H132.427V62.4743L168.569 26.4462H172.84L208.982 62.4743V71.1272H212.433V62.4341L175.713 25.8269H165.699H165.696ZM186.443 0H154.963L103.066 51.737V71.1272H106.517V51.7771L157.836 0.619295H183.573L234.889 51.7771V71.1272H238.34V51.737L186.443 0ZM157.111 5.16653L108.251 53.8758V71.1272H111.703V53.916L159.982 5.78582H181.425L229.707 53.9188V71.1301H233.158V53.8787L184.298 5.16653H157.111ZM159.257 10.3302L113.431 56.0147V71.1272H116.882V56.0577L162.13 10.9524H179.279L224.527 56.0577V71.1272H227.978V56.0147L182.152 10.3302H159.26H159.257Z" fill="#4A04FF"/>
<path d="M72.1667 60.2924V71.1243H75.6179V60.3325L114.794 21.2768H122.188V20.6575H111.921L72.1638 60.2895L72.1667 60.2924ZM82.5317 64.573V71.1272H85.9828V64.616L119.091 31.6127H122.194V30.9934H116.218L82.5317 64.573ZM77.3492 62.4341V71.1272H80.8004V62.4743L116.943 26.4462H122.191V25.8269H114.07L77.3492 62.4341ZM61.8046 56.0147V71.1272H65.2557V56.0577L110.503 10.9495H122.191V10.3302H107.63L61.8046 56.0147ZM103.339 0L51.4425 51.737V71.1272H54.8936V51.7771L106.21 0.619295H122.191V0H103.339ZM66.9871 58.1535V71.1272H70.4382V58.1965L112.649 16.116H122.191V15.4967H109.779L66.9871 58.1535ZM56.625 53.8758V71.1272H60.0761V53.916L108.355 5.78582H122.191V5.16653H105.485L56.625 53.8758Z" fill="#4A04FF"/>
<path d="M20.7242 60.2924V71.1243H24.1754V60.3325L63.3519 21.2825H70.746V20.6632H60.4788L20.7242 60.2924ZM31.0864 64.573V71.1272H34.5375V64.616L67.6457 31.6127H70.7488V30.9934H64.7726L31.0864 64.573ZM25.9067 62.4341V71.1272H29.3579V62.4743L65.5002 26.4462H70.7488V25.8269H62.6271L25.9067 62.4341ZM10.3621 56.0147V71.1272H13.8133V56.0577L59.0609 10.9495H70.7488V10.3302H56.1878L10.3621 56.0147ZM51.8969 0L0 51.737V71.1272H3.45116V51.7771L54.7671 0.619295H70.7488V0H51.8969ZM15.5446 58.1535V71.1272H18.9958V58.1965L61.2064 16.116H70.7488V15.4967H58.3362L15.5446 58.1535ZM5.1825 53.8758V71.1272H8.63366V53.916L56.9126 5.78582H70.7488V5.16653H54.0423L5.1825 53.8758Z" fill="#4A04FF"/>
<path d="M2.94787 77.6269L4.32833 81.6753H4.34559L5.65128 77.6269H7.47752V83.5131H6.26098V79.3415H6.24373L4.79712 83.5131H3.79628L2.34967 79.3845H2.33241V83.5131H1.11875V77.6269H2.94499H2.94787Z" fill="#4A04FF"/>
<path d="M11.5614 77.6269L13.7701 83.5131H12.4213L11.9755 82.2028H9.76679L9.30376 83.5131H7.99807L10.2298 77.6269H11.5614ZM11.6362 81.2366L10.8913 79.0777H10.874L10.1062 81.2366H11.6362Z" fill="#4A04FF"/>
<path d="M15.2743 82.0624C15.3462 82.2 15.4411 82.3118 15.559 82.3949C15.6769 82.481 15.8178 82.544 15.976 82.5842C16.1342 82.6243 16.301 82.6472 16.4736 82.6472C16.5886 82.6472 16.7123 82.6386 16.8446 82.6186C16.9768 82.5985 17.1005 82.5612 17.2156 82.5068C17.3306 82.4523 17.4284 82.3749 17.506 82.2803C17.5837 82.1828 17.6211 82.0624 17.6211 81.9133C17.6211 81.7527 17.5693 81.6237 17.4686 81.5262C17.368 81.4287 17.2328 81.3456 17.0689 81.2796C16.9049 81.2137 16.7151 81.1564 16.5081 81.1076C16.2981 81.0589 16.0853 81.0044 15.8725 80.9442C15.651 80.8897 15.4382 80.8209 15.2283 80.7435C15.0183 80.6632 14.8314 80.56 14.6674 80.4338C14.5006 80.3077 14.3683 80.15 14.2677 79.9608C14.167 79.7715 14.1153 79.5422 14.1153 79.2727C14.1153 78.9716 14.1785 78.7078 14.3108 78.4842C14.4402 78.2606 14.6099 78.0771 14.8199 77.928C15.0298 77.7789 15.2656 77.6699 15.5302 77.5983C15.7948 77.5266 16.0594 77.4922 16.324 77.4922C16.6317 77.4922 16.928 77.5266 17.2127 77.5954C17.4974 77.6642 17.7476 77.776 17.9691 77.928C18.1905 78.0828 18.3631 78.2778 18.4925 78.5186C18.6219 78.7594 18.688 79.0462 18.688 79.3874H17.4312C17.4197 79.2125 17.3824 79.0662 17.3191 78.9515C17.2558 78.8369 17.1724 78.7451 17.066 78.6792C16.9625 78.6132 16.8417 78.5674 16.7065 78.5387C16.5713 78.51 16.4247 78.4985 16.2636 78.4985C16.1601 78.4985 16.0537 78.51 15.9501 78.5329C15.8466 78.5559 15.7517 78.5932 15.6654 78.6476C15.5791 78.7021 15.5101 78.7709 15.4555 78.8541C15.4008 78.9372 15.3721 79.0404 15.3721 79.1666C15.3721 79.2813 15.3951 79.3759 15.4382 79.4476C15.4813 79.5192 15.5705 79.5852 15.6999 79.6454C15.8293 79.7056 16.0076 79.7658 16.2377 79.826C16.4678 79.8862 16.7669 79.9636 17.135 80.0583C17.2443 80.0812 17.3996 80.1213 17.5952 80.1787C17.7907 80.236 17.9863 80.3278 18.179 80.4539C18.3717 80.5801 18.5385 80.7492 18.6794 80.9614C18.8203 81.1736 18.8894 81.4431 18.8894 81.7728C18.8894 82.0423 18.8376 82.2917 18.7312 82.524C18.6277 82.7562 18.4695 82.954 18.2653 83.1203C18.0582 83.2866 17.8022 83.4185 17.4974 83.5131C17.1925 83.6077 16.8388 83.6536 16.4362 83.6536C16.1112 83.6536 15.7948 83.6135 15.49 83.5332C15.1851 83.4529 14.9148 83.3296 14.6789 83.1576C14.446 82.9884 14.2591 82.7705 14.121 82.5068C13.983 82.243 13.9168 81.9305 13.9226 81.5663H15.1794C15.1794 81.7642 15.2168 81.9305 15.2858 82.0681L15.2743 82.0624Z" fill="#4A04FF"/>
<path d="M24.4918 77.6269C24.8714 77.6269 25.2251 77.6871 25.553 77.8076C25.8809 77.928 26.1656 78.1086 26.4043 78.3523C26.643 78.5932 26.8299 78.8971 26.9651 79.2583C27.1003 79.6196 27.1664 80.0468 27.1664 80.5371C27.1664 80.9642 27.1118 81.3599 27.0025 81.724C26.8932 82.0882 26.7264 82.4007 26.5021 82.6644C26.2777 82.9282 26.0016 83.1346 25.668 83.2866C25.3344 83.4386 24.9404 83.5131 24.4889 83.5131H21.9436V77.6269H24.4889H24.4918ZM24.4026 82.4236C24.5895 82.4236 24.7707 82.3921 24.949 82.3319C25.1245 82.2717 25.2826 82.1713 25.4207 82.0308C25.5587 81.8903 25.668 81.7068 25.7514 81.4832C25.8348 81.2567 25.8751 80.9843 25.8751 80.6603C25.8751 80.365 25.8463 80.0955 25.7888 79.8575C25.7313 79.6196 25.6364 79.4131 25.5041 79.244C25.3718 79.0748 25.1964 78.9429 24.9778 78.8512C24.7592 78.7594 24.4918 78.7164 24.1725 78.7164H23.2465V82.4265H24.4055L24.4026 82.4236Z" fill="#4A04FF"/>
<path d="M32.4869 77.6269V78.7136H29.3694V79.9751H32.231V80.9815H29.3694V82.4236H32.5531V83.5102H28.0723V77.6241H32.4869V77.6269Z" fill="#4A04FF"/>
<path d="M34.4225 82.0624C34.4944 82.2 34.5893 82.3118 34.7072 82.3949C34.8251 82.481 34.966 82.544 35.1242 82.5842C35.2853 82.6243 35.4492 82.6472 35.6189 82.6472C35.7339 82.6472 35.8576 82.6386 35.9899 82.6186C36.1222 82.5985 36.2458 82.5612 36.3609 82.5068C36.4759 82.4523 36.5737 82.3749 36.6513 82.2803C36.729 82.1828 36.7664 82.0624 36.7664 81.9133C36.7664 81.7527 36.7146 81.6237 36.614 81.5262C36.5133 81.4287 36.3781 81.3456 36.2142 81.2796C36.0474 81.2137 35.8605 81.1564 35.6534 81.1076C35.4434 81.0589 35.2306 81.0044 35.0178 80.9442C34.7963 80.8897 34.5835 80.8209 34.3736 80.7435C34.1636 80.6632 33.9767 80.56 33.8128 80.4338C33.6488 80.3077 33.5137 80.15 33.413 79.9608C33.3123 79.7715 33.2606 79.5422 33.2606 79.2727C33.2606 78.9716 33.3267 78.7078 33.4561 78.4842C33.5856 78.2606 33.7552 78.0771 33.9652 77.928C34.1751 77.7789 34.411 77.6699 34.6756 77.5983C34.9401 77.5266 35.2047 77.4922 35.4693 77.4922C35.7771 77.4922 36.0733 77.5266 36.358 77.5954C36.6427 77.6642 36.8929 77.776 37.1144 77.928C37.3358 78.0828 37.5113 78.2778 37.6407 78.5186C37.7701 78.7566 37.8362 79.0462 37.8362 79.3874H36.5794C36.5679 79.2125 36.5306 79.0662 36.4673 78.9515C36.404 78.8369 36.3206 78.7451 36.2142 78.6792C36.1107 78.6132 35.9899 78.5674 35.8547 78.5387C35.7195 78.51 35.5729 78.4985 35.4118 78.4985C35.3083 78.4985 35.2019 78.51 35.0983 78.5329C34.9948 78.5559 34.8999 78.5932 34.8136 78.6476C34.7273 78.7021 34.6583 78.7709 34.6037 78.8541C34.549 78.9372 34.5203 79.0404 34.5203 79.1666C34.5203 79.2813 34.5433 79.3759 34.5864 79.4476C34.6295 79.5192 34.7187 79.5852 34.8481 79.6454C34.9775 79.7056 35.1558 79.7658 35.3859 79.826C35.616 79.8862 35.9122 79.9636 36.2832 80.0583C36.3925 80.0812 36.5478 80.1213 36.7434 80.1787C36.9389 80.236 37.1345 80.3278 37.3272 80.4539C37.5199 80.5801 37.6867 80.7492 37.8276 80.9614C37.9685 81.1736 38.0376 81.4431 38.0376 81.7728C38.0376 82.0423 37.9858 82.2917 37.8794 82.524C37.773 82.7562 37.6177 82.954 37.4135 83.1203C37.2064 83.2866 36.9504 83.4185 36.6456 83.5131C36.3407 83.6077 35.9841 83.6536 35.5844 83.6536C35.2594 83.6536 34.943 83.6135 34.6382 83.5332C34.3333 83.4529 34.063 83.3296 33.8271 83.1576C33.5942 82.9884 33.4073 82.7705 33.2692 82.5068C33.1312 82.243 33.065 81.9305 33.0708 81.5663H34.3276C34.3276 81.7642 34.3621 81.9305 34.434 82.0681L34.4225 82.0624Z" fill="#4A04FF"/>
<path d="M40.0939 77.6269V83.5131H38.7968V77.6269H40.0939Z" fill="#4A04FF"/>
<path d="M44.7328 83.4672C44.451 83.5848 44.1691 83.645 43.8815 83.645C43.43 83.645 43.0216 83.5676 42.6621 83.4099C42.3026 83.2522 41.9978 83.0372 41.7476 82.7619C41.5002 82.4867 41.3104 82.1656 41.1781 81.7928C41.0458 81.423 40.9797 81.0216 40.9797 80.5944C40.9797 80.1672 41.0458 79.7457 41.1781 79.3701C41.3104 78.9945 41.5002 78.6648 41.7476 78.3839C41.9949 78.1029 42.2998 77.885 42.6621 77.7244C43.0245 77.5639 43.43 77.4865 43.8815 77.4865C44.1835 77.4865 44.4769 77.5323 44.7616 77.6212C45.0463 77.713 45.3023 77.8448 45.5295 78.0197C45.7595 78.1946 45.9465 78.4125 46.096 78.6706C46.2456 78.9286 46.3347 79.2268 46.3693 79.5594H45.1297C45.0521 79.2296 44.9025 78.9831 44.6839 78.8168C44.4625 78.6534 44.195 78.5702 43.8815 78.5702C43.5882 78.5702 43.3409 78.6276 43.1367 78.7394C42.9325 78.8512 42.7685 79.0031 42.642 79.1924C42.5155 79.3816 42.4234 79.5966 42.3659 79.8403C42.3084 80.0812 42.2796 80.3335 42.2796 80.5915C42.2796 80.8496 42.3084 81.0789 42.3659 81.314C42.4234 81.5463 42.5155 81.7584 42.642 81.9448C42.7685 82.1312 42.9353 82.2803 43.1367 82.3949C43.3409 82.5068 43.5882 82.5641 43.8815 82.5641C44.3101 82.5641 44.6437 82.4551 44.8766 82.2372C45.1096 82.0193 45.2476 81.7068 45.285 81.294H43.9793V80.3306H46.4584V83.5131H45.6301L45.4978 82.8451C45.2649 83.1404 45.0089 83.3497 44.73 83.4672H44.7328Z" fill="#4A04FF"/>
<path d="M48.8023 77.6269L51.267 81.5749H51.2843V77.6269H52.5008V83.5131H51.2037L48.7477 79.5737H48.7304V83.5131H47.5139V77.6269H48.8052H48.8023Z" fill="#4A04FF"/>
<path d="M59.7224 79.1981C59.6447 79.0748 59.5498 78.9659 59.4319 78.8713C59.3169 78.7767 59.1846 78.705 59.0379 78.6534C58.8912 78.6018 58.7388 78.576 58.5777 78.576C58.2844 78.576 58.0371 78.6333 57.8329 78.7451C57.6287 78.8569 57.4647 79.0089 57.3382 79.1981C57.2117 79.3873 57.1196 79.6024 57.0621 79.8461C57.0046 80.0869 56.9758 80.3392 56.9758 80.5973C56.9758 80.8553 57.0046 81.0847 57.0621 81.3198C57.1196 81.552 57.2117 81.7642 57.3382 81.9505C57.4647 82.1369 57.6316 82.286 57.8329 82.4007C58.0371 82.5125 58.2844 82.5698 58.5777 82.5698C58.9746 82.5698 59.2852 82.4494 59.5067 82.2057C59.731 81.9649 59.8662 81.6466 59.9151 81.251H61.1719C61.1374 81.618 61.054 81.9505 60.9159 82.2487C60.7779 82.544 60.5967 82.7992 60.3695 83.0056C60.1423 83.2149 59.8777 83.3726 59.5757 83.4844C59.2737 83.5934 58.9401 83.6507 58.5749 83.6507C58.1233 83.6507 57.715 83.5733 57.3555 83.4156C56.996 83.2579 56.6911 83.0429 56.4409 82.7677C56.1936 82.4924 56.0038 82.1713 55.8715 81.7986C55.7392 81.4287 55.673 81.0273 55.673 80.6001C55.673 80.1729 55.7392 79.7515 55.8715 79.3759C56.0038 79.0003 56.1936 78.6706 56.4409 78.3896C56.6882 78.1086 56.9931 77.8907 57.3555 77.7302C57.7178 77.5696 58.1233 77.4922 58.5749 77.4922C58.8999 77.4922 59.2076 77.5381 59.4981 77.6327C59.7885 77.7273 60.0474 77.862 60.2746 78.0398C60.5046 78.2176 60.6916 78.4383 60.8411 78.7021C60.9907 78.9659 61.0827 79.2669 61.123 79.6081H59.8662C59.8432 79.459 59.7943 79.3243 59.7166 79.201L59.7224 79.1981Z" fill="#4A04FF"/>
<path d="M62.0059 79.3701C62.1382 78.9945 62.328 78.6648 62.5753 78.3839C62.8227 78.1029 63.1275 77.885 63.4899 77.7244C63.8494 77.5639 64.2578 77.4865 64.7093 77.4865C65.1608 77.4865 65.575 77.5667 65.9316 77.7244C66.2911 77.885 66.5931 78.1029 66.8404 78.3839C67.0877 78.6648 67.2775 78.9917 67.4098 79.3701C67.5421 79.7457 67.6083 80.1557 67.6083 80.5944C67.6083 81.0331 67.5421 81.423 67.4098 81.7928C67.2775 82.1627 67.0877 82.4867 66.8404 82.7619C66.5931 83.0372 66.2882 83.2522 65.9316 83.4099C65.5721 83.5676 65.1666 83.645 64.7093 83.645C64.252 83.645 63.8494 83.5676 63.4899 83.4099C63.1275 83.2522 62.8255 83.0372 62.5753 82.7619C62.328 82.4867 62.1382 82.1656 62.0059 81.7928C61.8736 81.423 61.8074 81.0216 61.8074 80.5944C61.8074 80.1672 61.8736 79.7457 62.0059 79.3701ZM63.1908 81.3169C63.2483 81.5491 63.3403 81.7613 63.4669 81.9477C63.5934 82.134 63.7602 82.2831 63.9644 82.3978C64.1686 82.5096 64.416 82.567 64.7093 82.567C65.0027 82.567 65.25 82.5096 65.4542 82.3978C65.6584 82.286 65.8223 82.134 65.9488 81.9477C66.0754 81.7613 66.1674 81.552 66.2249 81.3169C66.2825 81.0847 66.3112 80.8438 66.3112 80.5944C66.3112 80.345 66.2825 80.0869 66.2249 79.8432C66.1674 79.6024 66.0754 79.3845 65.9488 79.1952C65.8223 79.006 65.6555 78.8541 65.4542 78.7422C65.25 78.6304 65.0027 78.5731 64.7093 78.5731C64.416 78.5731 64.1686 78.6304 63.9644 78.7422C63.7602 78.8541 63.5963 79.006 63.4669 79.1952C63.3403 79.3845 63.2483 79.5995 63.1908 79.8432C63.1333 80.084 63.1045 80.3364 63.1045 80.5944C63.1045 80.8524 63.1333 81.0818 63.1908 81.3169Z" fill="#4A04FF"/>
<path d="M71.6778 77.6269C71.9424 77.6269 72.1811 77.6699 72.3939 77.756C72.6067 77.842 72.7879 77.9567 72.9403 78.1057C73.0928 78.2548 73.2078 78.4269 73.2883 78.6218C73.3689 78.8168 73.4091 79.0261 73.4091 79.2526C73.4091 79.5995 73.3372 79.8977 73.1905 80.15C73.0439 80.4023 72.8052 80.5944 72.4744 80.7263V80.7435C72.6355 80.7865 72.7678 80.8553 72.8713 80.9442C72.9748 81.0359 73.0611 81.142 73.1273 81.2653C73.1934 81.3886 73.2423 81.5262 73.2711 81.6724C73.3027 81.8215 73.3228 81.9677 73.3343 82.1168C73.3401 82.2114 73.3458 82.3204 73.3516 82.4465C73.3574 82.5727 73.366 82.7017 73.3804 82.8336C73.3947 82.9655 73.4149 83.0916 73.4465 83.2092C73.4781 83.3267 73.5213 83.4271 73.5846 83.5102H72.2875C72.2156 83.3239 72.1725 83.1002 72.1552 82.8422C72.1379 82.5842 72.1149 82.3376 72.0804 82.0996C72.0373 81.7928 71.9424 81.5663 71.7986 81.423C71.6548 81.2796 71.4218 81.2079 71.0968 81.2079H69.7998V83.5074H68.5027V77.6212H71.6864L71.6778 77.6269ZM71.2148 80.2905C71.511 80.2905 71.7353 80.2245 71.8849 80.0926C72.0344 79.9608 72.1092 79.7457 72.1092 79.4504C72.1092 79.1551 72.0344 78.9573 71.8849 78.8283C71.7353 78.6992 71.5139 78.6333 71.2148 78.6333H69.7911V80.2905H71.2148Z" fill="#4A04FF"/>
<path d="M77.1277 77.6269C77.4959 77.6269 77.8122 77.6814 78.0711 77.7875C78.3299 77.8936 78.5398 78.0369 78.7038 78.2118C78.8677 78.3867 78.9856 78.5874 79.0604 78.8139C79.1352 79.0404 79.1726 79.2727 79.1726 79.5135C79.1726 79.7543 79.1352 79.9808 79.0604 80.2102C78.9856 80.4396 78.8677 80.6403 78.7038 80.8152C78.5398 80.9901 78.3299 81.1334 78.0711 81.2395C77.8122 81.3456 77.4987 81.4001 77.1277 81.4001H75.7645V83.5102H74.4675V77.6241H77.1306L77.1277 77.6269ZM76.7711 80.3966C76.9207 80.3966 77.0645 80.3851 77.1996 80.3622C77.3377 80.3392 77.4585 80.2991 77.5649 80.2331C77.6684 80.1701 77.7547 80.0812 77.818 79.9665C77.8812 79.8518 77.9129 79.6999 77.9129 79.5135C77.9129 79.3271 77.8812 79.1752 77.818 79.0605C77.7547 78.9458 77.6713 78.8569 77.5649 78.7939C77.4614 78.7308 77.3377 78.6878 77.1996 78.6648C77.0616 78.6419 76.9178 78.6333 76.7711 78.6333H75.7617V80.3966H76.7711Z" fill="#4A04FF"/>
<path d="M79.7247 82.243V83.5131H78.4277V82.243H79.7247Z" fill="#4A04FF"/>
</g>
<defs>
<clipPath id="clip0_1_120">
<rect width="316" height="134" fill="white"/>
</clipPath>
</defs>
</svg>
